<svg width="24" height="24" viewBox="0 0 24 24" fill="none" xmlns="http://www.w3.org/2000/svg">
<path d="M11.115 4.66704C11.115 4.77814 11.0931 4.88815 11.0506 4.9908C11.0081 5.09344 10.9457 5.1867 10.8672 5.26526C10.7886 5.34382 10.6954 5.40613 10.5927 5.44865C10.4901 5.49116 10.3801 5.51304 10.269 5.51304C10.1579 5.51304 10.0479 5.49116 9.94522 5.44865C9.84258 5.40613 9.74932 5.34382 9.67076 5.26526C9.5922 5.1867 9.52989 5.09344 9.48737 4.9908C9.44486 4.88815 9.42297 4.77814 9.42297 4.66704C9.42297 4.44267 9.51211 4.22749 9.67076 4.06883C9.82942 3.91018 10.0446 3.82104 10.269 3.82104C10.4933 3.82104 10.7085 3.91018 10.8672 4.06883C11.0258 4.22749 11.115 4.44267 11.115 4.66704ZM13.654 5.51304C13.8783 5.51304 14.0935 5.42391 14.2522 5.26526C14.4108 5.1066 14.5 4.89142 14.5 4.66704C14.5 4.44267 14.4108 4.22749 14.2522 4.06883C14.0935 3.91018 13.8783 3.82104 13.654 3.82104C13.4296 3.82104 13.2144 3.91018 13.0558 4.06883C12.8971 4.22749 12.808 4.44267 12.808 4.66704C12.808 4.89142 12.8971 5.1066 13.0558 5.26526C13.2144 5.42391 13.4296 5.51304 13.654 5.51304Z" fill="black"/>
<path fill-rule="evenodd" clip-rule="evenodd" d="M6.35398 0.470084C6.42363 0.400389 6.50633 0.345102 6.59735 0.30738C6.68838 0.269659 6.78595 0.250244 6.88448 0.250244C6.98301 0.250244 7.08058 0.269659 7.1716 0.30738C7.26263 0.345102 7.34533 0.400389 7.41498 0.470084L8.64298 1.69708C9.61512 1.11753 10.7262 0.812375 11.858 0.814084H12.065C13.24 0.814084 14.339 1.13608 15.28 1.69708L16.508 0.470084C16.6502 0.337604 16.8382 0.265481 17.0325 0.268909C17.2268 0.272337 17.4122 0.351049 17.5496 0.488462C17.687 0.625875 17.7657 0.81126 17.7692 1.00556C17.7726 1.19986 17.7005 1.38791 17.568 1.53008L16.477 2.62208C17.5461 3.67267 18.2035 5.07151 18.33 6.56508C18.5453 6.49308 18.773 6.45642 19.013 6.45508C19.5858 6.45508 20.1352 6.68265 20.5403 7.08773C20.9454 7.49281 21.173 8.04222 21.173 8.61508V13.6921C21.1732 14.0324 21.093 14.368 20.9389 14.6714C20.7848 14.9748 20.5612 15.2376 20.2863 15.4382C20.0114 15.6388 19.693 15.7716 19.357 15.8258C19.021 15.88 18.677 15.8541 18.353 15.7501V17.6151C18.353 18.5281 17.908 19.3361 17.224 19.8371V21.3071C17.224 21.9547 16.9667 22.5759 16.5087 23.0338C16.0508 23.4918 15.4296 23.7491 14.782 23.7491C14.1343 23.7491 13.5132 23.4918 13.0552 23.0338C12.5973 22.5759 12.34 21.9547 12.34 21.3071V20.3651H11.583V21.3081C11.583 21.9557 11.3257 22.5769 10.8677 23.0348C10.4098 23.4928 9.78864 23.7501 9.14098 23.7501C8.49332 23.7501 7.87219 23.4928 7.41422 23.0348C6.95626 22.5769 6.69898 21.9557 6.69898 21.3081V19.8371C6.34929 19.5817 6.06487 19.2473 5.86885 18.8612C5.67284 18.4751 5.57078 18.0481 5.57098 17.6151V15.7501C5.24694 15.8541 4.90291 15.88 4.56694 15.8258C4.23097 15.7716 3.91256 15.6388 3.63766 15.4382C3.36276 15.2376 3.13916 14.9748 2.98507 14.6714C2.83098 14.368 2.75077 14.0324 2.75098 13.6921V8.61508C2.7509 8.27288 2.83213 7.93555 2.98797 7.6309C3.14382 7.32624 3.36982 7.06297 3.64735 6.86278C3.92489 6.66258 4.24602 6.5312 4.58429 6.47944C4.92255 6.42768 5.26828 6.45704 5.59298 6.56508C5.71948 5.07151 6.37686 3.67267 7.44598 2.62208L6.35398 1.53008C6.21353 1.38946 6.13464 1.19883 6.13464 1.00008C6.13464 0.801333 6.21353 0.610709 6.35398 0.470084ZM7.31898 7.95508C7.25302 7.95561 7.18994 7.98218 7.14349 8.02901C7.09704 8.07584 7.07098 8.13912 7.07098 8.20508V17.6151C7.07097 17.9457 7.20198 18.2629 7.43532 18.4972C7.66866 18.7315 7.98532 18.8638 8.31598 18.8651H15.607C15.9376 18.8638 16.2543 18.7315 16.4876 18.4972C16.721 18.2629 16.852 17.9457 16.852 17.6151V8.20508C16.852 8.13912 16.8259 8.07584 16.7795 8.02901C16.733 7.98218 16.6699 7.95561 16.604 7.95508H7.31898ZM16.606 6.45508H16.809C16.6519 5.30829 16.0849 4.25717 15.2128 3.4961C14.3407 2.73503 13.2225 2.31549 12.065 2.31508H11.858C10.7005 2.31549 9.58228 2.73503 8.71018 3.4961C7.83807 4.25717 7.27105 5.30829 7.11398 6.45508H16.606ZM13.84 21.3081V20.3651H15.724V21.3081C15.724 21.4318 15.6996 21.5543 15.6523 21.6686C15.6049 21.7829 15.5355 21.8867 15.4481 21.9742C15.3606 22.0617 15.2568 22.131 15.1425 22.1784C15.0282 22.2257 14.9057 22.2501 14.782 22.2501C14.6583 22.2501 14.5358 22.2257 14.4215 22.1784C14.3072 22.131 14.2034 22.0617 14.1159 21.9742C14.0284 21.8867 13.959 21.7829 13.9117 21.6686C13.8643 21.5543 13.84 21.4318 13.84 21.3081ZM8.31398 20.3651H10.083V21.3081C10.083 21.5579 9.98373 21.7975 9.80707 21.9742C9.63041 22.1508 9.39081 22.2501 9.14098 22.2501C8.89114 22.2501 8.65154 22.1508 8.47488 21.9742C8.29822 21.7975 8.19898 21.5579 8.19898 21.3081V20.3651H8.31398ZM19.013 14.3531C18.8383 14.3531 18.6707 14.2838 18.547 14.1605C18.4233 14.0371 18.3535 13.8698 18.353 13.6951V8.61208C18.3534 8.43704 18.4233 8.26933 18.5473 8.14583C18.6088 8.08469 18.6816 8.03624 18.7618 8.00325C18.8419 7.97026 18.9278 7.95339 19.0145 7.95358C19.1011 7.95378 19.1869 7.97105 19.2669 8.0044C19.3469 8.03775 19.4196 8.08653 19.4807 8.14795C19.5419 8.20938 19.5903 8.28225 19.6233 8.3624C19.6563 8.44255 19.6732 8.52841 19.673 8.61508V13.6921C19.673 13.8671 19.6034 14.035 19.4797 14.1588C19.3559 14.2825 19.188 14.3531 19.013 14.3531ZM5.56998 8.61008C5.56945 8.43504 5.4994 8.26738 5.37525 8.14398C5.2511 8.02058 5.08302 7.95155 4.90798 7.95208C4.73293 7.95261 4.56527 8.02266 4.44187 8.14681C4.31847 8.27096 4.24945 8.43904 4.24998 8.61408V13.6911C4.24931 13.8661 4.31821 14.0343 4.44152 14.1585C4.56482 14.2827 4.73243 14.3529 4.90748 14.3536C5.08252 14.3542 5.25066 14.2853 5.3749 14.162C5.49914 14.0387 5.56931 13.8711 5.56998 13.6961V8.61008Z" fill="black"/>
</svg>
