<svg width="60" height="61" viewBox="0 0 60 61" fill="none" xmlns="http://www.w3.org/2000/svg">
<circle cx="30" cy="30.5" r="30" fill="#DDDDDD"/>
<path d="M39.1234 33.3333C39.3712 33.69 39.7264 33.9581 40.1373 34.0987C40.5482 34.2392 40.9933 34.2447 41.4075 34.1144C41.8218 33.9842 42.1836 33.7249 42.4401 33.3745C42.6966 33.0241 42.8344 32.6009 42.8334 32.1667C42.8344 31.7324 42.6966 31.3092 42.4401 30.9588C42.1836 30.6084 41.8218 30.3492 41.4075 30.2189C40.9933 30.0886 40.5482 30.0941 40.1373 30.2347C39.7264 30.3752 39.3712 30.6433 39.1234 31H38.1668C38.1668 29.1683 37.5834 27.5 36.5334 26.1117L38.0968 24.5483C38.7501 24.665 39.4151 24.4783 39.9168 24C40.6984 23.195 40.6984 21.9 39.9168 21.0833C39.1118 20.3017 37.8168 20.3017 37.0001 21.0833C36.5218 21.585 36.3351 22.25 36.4518 22.9033L34.8884 24.4667C33.8151 23.6617 32.5551 23.125 31.1668 22.9267V21.2933C31.5234 21.0456 31.7916 20.6904 31.9321 20.2795C32.0726 19.8686 32.0782 19.4235 31.9479 19.0093C31.8176 18.595 31.5584 18.2332 31.208 17.9767C30.8576 17.7202 30.4344 17.5824 30.0001 17.5833C29.5659 17.5824 29.1426 17.7202 28.7923 17.9767C28.4419 18.2332 28.1826 18.595 28.0523 19.0093C27.9221 19.4235 27.9276 19.8686 28.0681 20.2795C28.2086 20.6904 28.4768 21.0456 28.8334 21.2933V22.9267C27.7834 23.0783 26.8034 23.4167 25.9168 23.93L24.6218 22.075C24.8434 21.4683 24.7851 20.7683 24.3884 20.2083C24.2347 19.9882 24.039 19.8006 23.8126 19.6563C23.5862 19.5119 23.3336 19.4136 23.0692 19.367C22.8048 19.3204 22.5337 19.3264 22.2716 19.3847C22.0096 19.443 21.7615 19.5524 21.5418 19.7067C20.6201 20.3483 20.3868 21.62 21.0401 22.5417C21.4368 23.1133 22.0668 23.4167 22.7084 23.4167L24.0851 25.3767C23.5834 25.8783 23.1868 26.4383 22.8484 27.0567C22.4807 26.913 22.0793 26.8784 21.6923 26.957C21.3054 27.0356 20.9493 27.2242 20.6668 27.5C19.8851 28.3167 19.8851 29.6 20.6668 30.4167C21.0051 30.7317 21.4134 30.9183 21.8334 31C21.8334 31.63 21.9151 32.2367 22.0434 32.82L20.5151 33.2283C20.0251 32.82 19.3484 32.645 18.6718 32.82C18.1489 32.9623 17.7039 33.3066 17.4348 33.777C17.1657 34.2474 17.0944 34.8054 17.2368 35.3283C17.3791 35.8513 17.7233 36.2962 18.1937 36.5653C18.6641 36.8344 19.2222 36.9057 19.7451 36.7633C20.4101 36.5767 20.9118 36.0867 21.1218 35.48L22.8834 35.0017C23.4084 35.9233 24.1084 36.74 24.9251 37.4167L23.6418 39.75C23.0001 39.8433 22.4168 40.205 22.0784 40.8233C21.9513 41.0593 21.8718 41.318 21.8446 41.5846C21.8174 41.8512 21.843 42.1206 21.92 42.3774C21.9969 42.6341 22.1236 42.8732 22.2929 43.081C22.4622 43.2888 22.6708 43.4612 22.9068 43.5883C23.1427 43.7155 23.4014 43.7949 23.668 43.8221C23.9347 43.8493 24.2041 43.8237 24.4608 43.7468C24.7176 43.6699 24.9567 43.5432 25.1644 43.3738C25.3722 43.2045 25.5446 42.9959 25.6718 42.76C25.9984 42.1533 25.9868 41.4533 25.6951 40.8817L26.9434 38.5833C27.8884 38.9567 28.9151 39.1667 30.0001 39.1667H30.2101C30.0584 39.47 30.0001 39.82 30.0001 40.1933C30.0934 41.325 31.0734 42.165 32.1934 42.0833C33.3134 42.0017 34.1651 41.01 34.0834 39.89C34.0368 39.3067 33.7451 38.7933 33.3251 38.455C33.8734 38.21 34.3984 37.895 34.8884 37.5333L37.6184 40.2633C37.5018 40.9167 37.6884 41.5817 38.1668 42.0833C38.9834 42.865 40.2668 42.865 41.0834 42.0833C41.9001 41.3017 41.8651 39.9833 41.0834 39.1667C40.5818 38.6883 39.9168 38.5017 39.2634 38.6183L36.5334 35.8883C37.1051 35.13 37.5484 34.2667 37.8284 33.3333H39.1234ZM28.2501 31C27.2818 31 26.5001 30.2183 26.5001 29.25C26.5001 28.2817 27.2818 27.5 28.2501 27.5C29.2184 27.5 30.0001 28.2817 30.0001 29.25C30.0001 30.2183 29.2184 31 28.2501 31ZM32.3334 34.5C31.6918 34.5 31.1668 33.975 31.1668 33.3333C31.1668 32.6917 31.6918 32.1667 32.3334 32.1667C32.9751 32.1667 33.5001 32.6917 33.5001 33.3333C33.5001 33.975 32.9751 34.5 32.3334 34.5Z" fill="#DA0000"/>
</svg>
