<svg width="60" height="61" viewBox="0 0 60 61" fill="none" xmlns="http://www.w3.org/2000/svg">
<circle cx="30" cy="30.5" r="30" fill="#DDDDDD"/>
<path fill-rule="evenodd" clip-rule="evenodd" d="M30.0002 24C29.4639 24 28.933 24.1056 28.4375 24.3108C27.9421 24.516 27.492 24.8168 27.1128 25.196C26.7336 25.5751 26.4329 26.0253 26.2277 26.5207C26.0224 27.0161 25.9168 27.5471 25.9168 28.0833C25.9168 28.6195 26.0224 29.1505 26.2277 29.6459C26.4329 30.1413 26.7336 30.5915 27.1128 30.9707C27.492 31.3498 27.9421 31.6506 28.4375 31.8558C28.933 32.061 29.4639 32.1666 30.0002 32.1666C31.0831 32.1666 32.1217 31.7364 32.8875 30.9707C33.6533 30.2049 34.0835 29.1663 34.0835 28.0833C34.0835 27.0003 33.6533 25.9617 32.8875 25.196C32.1217 24.4302 31.0831 24 30.0002 24ZM28.2502 33.3333C27.0125 33.3333 25.8255 33.825 24.9503 34.7001C24.0752 35.5753 23.5835 36.7623 23.5835 38C23.5835 38.6188 23.8293 39.2123 24.2669 39.6499C24.7045 40.0875 25.298 40.3333 25.9168 40.3333H34.0835C34.7023 40.3333 35.2958 40.0875 35.7334 39.6499C36.171 39.2123 36.4168 38.6188 36.4168 38C36.4168 36.7623 35.9252 35.5753 35.05 34.7001C34.1748 33.825 32.9878 33.3333 31.7502 33.3333H28.2502ZM36.2068 29.7213C36.5777 28.3089 36.4566 26.8123 35.8635 25.4778C35.2704 24.1434 34.2406 23.0506 32.9437 22.3795C33.4379 22.0417 34.0003 21.8168 34.5911 21.7206C35.1819 21.6244 35.7867 21.6592 36.3625 21.8227C36.9384 21.9861 37.4712 22.2742 37.9234 22.6665C38.3755 23.0587 38.7359 23.5456 38.979 24.0926C39.2221 24.6397 39.3419 25.2334 39.33 25.8319C39.3181 26.4304 39.1748 27.0189 38.9102 27.5559C38.6456 28.0928 38.2662 28.565 37.7988 28.939C37.3314 29.313 36.7875 29.5797 36.2057 29.7201L36.2068 29.7213ZM38.7502 38H39.3335C39.9523 38 40.5458 37.7541 40.9834 37.3166C41.421 36.879 41.6668 36.2855 41.6668 35.6666C41.6668 34.429 41.1752 33.242 40.3 32.3668C39.4248 31.4916 38.2378 31 37.0002 31H35.7168C35.5581 31.3108 35.3744 31.6081 35.1673 31.889C36.2541 32.4968 37.159 33.3836 37.7888 34.4578C38.4186 35.532 38.7505 36.7548 38.7502 38ZM20.6668 25.75C20.6667 25.0066 20.8694 24.2772 21.2533 23.6406C21.6372 23.0039 22.1875 22.4842 22.8451 22.1373C23.5026 21.7905 24.2424 21.6297 24.9846 21.6724C25.7268 21.7151 26.4432 21.9596 27.0567 22.3795C25.7585 23.0492 24.7276 24.1418 24.1345 25.4767C23.5414 26.8117 23.4215 28.309 23.7947 29.7213C22.9031 29.5067 22.1097 28.9983 21.5423 28.2779C20.9749 27.5574 20.6665 26.667 20.6668 25.75ZM24.2835 31H23.0002C21.7625 31 20.5755 31.4916 19.7003 32.3668C18.8252 33.242 18.3335 34.429 18.3335 35.6666C18.3335 36.2855 18.5793 36.879 19.0169 37.3166C19.4545 37.7541 20.048 38 20.6668 38H21.2502C21.2499 36.7548 21.5817 35.532 22.2115 34.4578C22.8413 33.3836 23.7462 32.4968 24.833 31.889C24.626 31.6081 24.4422 31.3108 24.2835 31Z" fill="#00A419"/>
</svg>
