<svg width="60" height="61" viewBox="0 0 60 61" fill="none" xmlns="http://www.w3.org/2000/svg">
<circle cx="30" cy="30.5" r="30" fill="#DDDDDD"/>
<path fill-rule="evenodd" clip-rule="evenodd" d="M29.181 19.0608C29.7091 18.8629 30.2909 18.8629 30.819 19.0608L38.9857 22.1233C39.4305 22.2901 39.8139 22.5887 40.0845 22.9791C40.3551 23.3696 40.5001 23.8334 40.5 24.3085V30.5653C40.5 32.5153 39.9571 34.4268 38.9319 36.0856C37.9068 37.7444 36.44 39.0849 34.6958 39.957L30.7828 41.9123C30.5398 42.0339 30.2718 42.0972 30 42.0972C29.7282 42.0972 29.4602 42.0339 29.2172 41.9123L25.3042 39.9558C23.56 39.0837 22.0932 37.7432 21.0681 36.0844C20.0429 34.4256 19.5 32.5142 19.5 30.5642V24.3097C19.4997 23.8344 19.6446 23.3703 19.9152 22.9796C20.1858 22.5889 20.5693 22.2902 21.0143 22.1233L29.181 19.0608ZM31.1667 30.1873C31.6115 29.9305 31.9591 29.5341 32.1556 29.0595C32.3522 28.585 32.3867 28.0589 32.2537 27.5627C32.1208 27.0666 31.8279 26.6282 31.4204 26.3155C31.0129 26.0028 30.5136 25.8333 30 25.8333C29.4864 25.8333 28.9871 26.0028 28.5796 26.3155C28.1721 26.6282 27.8792 27.0666 27.7463 27.5627C27.6133 28.0589 27.6478 28.585 27.8444 29.0595C28.0409 29.5341 28.3885 29.9305 28.8333 30.1873V34C28.8333 34.3094 28.9562 34.6062 29.175 34.825C29.3938 35.0437 29.6906 35.1667 30 35.1667C30.3094 35.1667 30.6062 35.0437 30.825 34.825C31.0437 34.6062 31.1667 34.3094 31.1667 34V30.1873Z" fill="#0052CC"/>
</svg>
