<svg width="253" height="40" viewBox="0 0 253 40" fill="none" xmlns="http://www.w3.org/2000/svg">
<path d="M27.6728 33.3476C23.7206 33.3889 20.3688 31.8341 18.2348 28.9692C15.5682 25.3883 15.1166 20.1407 16.9627 14.1921C17.0427 13.934 16.9015 13.6654 16.6651 13.5742C10.5679 11.1956 5.49132 13.3428 1.98403 19.7834C1.93198 19.8792 1.91145 19.9901 1.92887 20.104C3.44508 29.5706 11.9108 36.5659 19.3274 39.9558C19.3301 39.9566 19.332 39.9564 19.3343 39.9575C19.4664 40.0161 19.6192 40.0107 19.7318 39.9618C22.5919 38.7589 25.6191 36.6604 28.0366 34.2038C28.3511 33.8839 28.1201 33.3431 27.6728 33.3476ZM2.95116 20.1137C6.11713 14.4024 10.4286 12.4542 15.7739 14.3176C13.3055 19.164 12.2046 23.3944 12.4095 27.238V27.2392C12.6085 30.9806 14.0899 34.3903 16.9185 37.5919C10.6011 33.9971 4.2793 27.9293 2.95116 20.1137ZM19.6337 38.9022C15.6277 35.2512 13.6458 31.5208 13.4148 27.1855C13.4148 27.1849 13.4148 27.1849 13.4148 27.1843C13.2735 24.5332 13.7955 21.6695 14.9986 18.5141C14.8536 19.7141 14.8053 20.8762 14.8646 21.9868C15.0203 24.9093 15.8799 27.4914 17.4278 29.57C19.5362 32.4006 22.7163 34.0608 26.4729 34.3187C24.3947 36.2465 21.9646 37.8749 19.6337 38.9022Z" fill="#0052CC"/>
<path d="M10.4335 10.998C14.8677 10.4787 19.6383 12.711 23.8668 17.2849C23.8684 17.2866 23.8709 17.288 23.8724 17.2897C24.0548 17.4811 24.3491 17.496 24.5508 17.3359C27.6581 14.8474 29.1428 11.8797 28.9637 8.51544C28.8478 6.3423 28.0237 3.98773 26.5139 1.51703C26.4559 1.42227 26.3679 1.34886 26.264 1.30905C17.3077 -2.11074 7.01687 1.72273 0.372635 6.45075C0.263771 6.52768 0.183939 6.65521 0.164654 6.79787C0.0012545 8.09595 -0.0391772 9.49853 0.0373387 10.9364C0.14247 12.9094 0.46823 14.9478 0.999487 16.8692C1.11872 17.3 1.70306 17.373 1.92286 16.982C3.86272 13.5389 6.8852 11.4137 10.4335 10.998ZM25.7442 2.18929C27.1095 4.46134 27.8541 6.60669 27.9586 8.56915C28.111 11.4334 26.8988 13.9956 24.3528 16.1917C18.5208 7.21446 12.0203 3.83884 3.62798 5.5448C9.89876 1.87162 18.313 -0.568389 25.7442 2.18929ZM1.68108 15.457C1.05133 12.6935 0.85641 9.77494 1.13199 7.24225C9.20722 4.67803 15.5089 6.58139 21.0821 13.4004C17.5775 10.7784 13.861 9.58314 10.3164 9.99827C6.81117 10.4088 3.78351 12.3327 1.68108 15.457Z" fill="#0052CC"/>
<path d="M38.9756 8.26992C38.9284 7.38283 38.8639 6.77983 38.8639 6.77983C38.8494 6.64463 38.7704 6.50985 38.6692 6.43395C36.1966 4.55797 32.8658 2.98597 29.5302 2.12086C29.097 2.00868 28.7426 2.47773 28.9705 2.86425C30.9827 6.2664 31.3116 9.94622 29.8976 13.2269C28.1301 17.3268 23.8112 20.3418 17.7364 21.7168C17.7349 21.7174 17.7337 21.7185 17.732 21.7193C17.4884 21.7761 17.3096 22.0181 17.3505 22.2839C18.3392 28.7536 22.7371 32.0763 30.0683 31.8932C30.1794 31.8905 30.2868 31.8511 30.3733 31.7808C39.138 24.658 39.1737 11.985 38.9756 8.26992ZM30.8216 13.6254C32.2188 10.3846 32.0666 6.80015 30.4121 3.41811C33.1202 4.25377 35.7448 5.54438 37.8011 7.0494C35.9832 15.3253 31.1843 19.8309 22.4922 21.248C26.5156 19.5234 29.4091 16.9025 30.8216 13.6254ZM29.8709 30.8908C23.3419 31.0045 19.4989 28.2445 18.4399 22.6839C29.1215 22.1232 35.2942 18.1875 38.0162 10.0796C38.0205 14.9094 37.0812 24.9191 29.8709 30.8908Z" fill="#0052CC"/>
<path d="M56.9316 31C57.0585 30.3848 57.122 29.8965 57.122 29.5352C57.122 29.1641 57.1122 28.8857 57.0927 28.7002C57.0829 28.5146 57.0634 28.3193 57.0341 28.1143C57.0146 27.8994 56.9853 27.665 56.9462 27.4111C56.9169 27.1475 56.8876 26.8447 56.8583 26.5029C56.6337 24.1689 55.8378 22.25 54.4706 20.7461C53.8652 20.082 53.2109 19.5791 52.5077 19.2373C51.8046 18.8857 51.2236 18.71 50.7646 18.71C50.3154 18.71 49.9687 18.7393 49.7245 18.7979C49.1777 20.4385 48.9042 22.1523 48.9042 23.9395C48.9042 25.5215 48.9872 26.7031 49.1532 27.4844C49.4169 28.6562 49.8222 29.833 50.3691 31.0146H45.9892C46.2236 30.4287 46.3407 29.1982 46.3407 27.3232C46.3407 25.4385 46.4823 23.6807 46.7655 22.0498C47.0488 20.4092 47.415 18.9492 47.8642 17.6699C48.3232 16.3906 48.831 15.2725 49.3876 14.3154C49.954 13.3486 50.5155 12.5088 51.0722 11.7959C51.6386 11.0732 52.1708 10.458 52.6689 9.9502C53.1669 9.43262 53.582 8.97852 53.914 8.58789H58.5282C58.1083 9.06641 57.8984 9.73535 57.8984 10.5947C57.8984 10.9854 57.9618 11.625 58.0888 12.5137L58.455 15.1797C59.7929 24.3984 60.9892 29.6719 62.0439 31H56.9316ZM50.3251 17.2451C50.706 17.0986 51.1064 17.0254 51.5263 17.0254C51.9462 17.0254 52.3222 17.0547 52.6542 17.1133C52.996 17.1719 53.3329 17.2695 53.665 17.4062C54.3779 17.6797 54.9736 18.1143 55.4521 18.71C54.9736 16.2002 54.6806 14.667 54.5732 14.1104L54.0605 11.5469L53.2255 12.543C52.0536 13.9492 51.0868 15.5166 50.3251 17.2451ZM66.8632 17.1426C67.957 16.3223 69.3241 15.9121 70.9648 15.9121C73.289 15.9121 74.8075 16.874 75.5204 18.7979C75.7548 19.4326 75.872 20.2334 75.872 21.2002C75.872 22.1572 75.7597 23.0947 75.5351 24.0127C75.3202 24.9209 75.0175 25.7412 74.6269 26.4736C74.2363 27.2061 73.7724 27.8506 73.2353 28.4072C72.7079 28.9639 72.1318 29.4277 71.5068 29.7988C70.2568 30.5508 68.9286 30.9463 67.5224 30.9854C67.5419 31.5127 67.5712 32.0303 67.6103 32.5381L67.7568 34.0908C67.8447 35.1455 68.1474 36.0391 68.665 36.7715L69.163 37.4453H63.8163C64.0898 36.5078 64.246 35.5703 64.2851 34.6328C64.3339 33.6953 64.3681 32.8896 64.3876 32.2158C64.4169 31.5518 64.4364 30.8633 64.4462 30.1504C64.4853 28.4902 64.5048 27.0352 64.5048 25.7852C64.5048 21.7617 64.3779 19.3008 64.1239 18.4023C63.9677 17.8457 63.7675 17.4014 63.5234 17.0693L62.9081 16.2051H66.8486C66.79 16.4004 66.7948 16.7129 66.8632 17.1426ZM72.2099 21.5811C72.2099 18.7783 71.5019 17.377 70.0859 17.377C69.3827 17.377 68.7968 17.6895 68.328 18.3145C67.8202 18.9883 67.5663 19.9111 67.5663 21.083L67.4638 28.0264V28.832C67.4638 29.0957 67.4687 29.3643 67.4784 29.6377C68.8945 29.4229 70.0419 28.5732 70.9208 27.0889C71.7802 25.624 72.2099 23.7881 72.2099 21.5811ZM82.3027 17.1426C83.3964 16.3223 84.7636 15.9121 86.4042 15.9121C88.7284 15.9121 90.247 16.874 90.9599 18.7979C91.1943 19.4326 91.3114 20.2334 91.3114 21.2002C91.3114 22.1572 91.1991 23.0947 90.9745 24.0127C90.7597 24.9209 90.457 25.7412 90.0663 26.4736C89.6757 27.2061 89.2118 27.8506 88.6747 28.4072C88.1474 28.9639 87.5712 29.4277 86.9462 29.7988C85.6962 30.5508 84.3681 30.9463 82.9618 30.9854C82.9814 31.5127 83.0107 32.0303 83.0497 32.5381L83.1962 34.0908C83.2841 35.1455 83.5868 36.0391 84.1044 36.7715L84.6025 37.4453H79.2558C79.5292 36.5078 79.6855 35.5703 79.7245 34.6328C79.7734 33.6953 79.8075 32.8896 79.8271 32.2158C79.8564 31.5518 79.8759 30.8633 79.8857 30.1504C79.9247 28.4902 79.9443 27.0352 79.9443 25.7852C79.9443 21.7617 79.8173 19.3008 79.5634 18.4023C79.4072 17.8457 79.207 17.4014 78.9628 17.0693L78.3476 16.2051H82.288C82.2294 16.4004 82.2343 16.7129 82.3027 17.1426ZM87.6493 21.5811C87.6493 18.7783 86.9413 17.377 85.5253 17.377C84.8222 17.377 84.2363 17.6895 83.7675 18.3145C83.2597 18.9883 83.0058 19.9111 83.0058 21.083L82.9032 28.0264V28.832C82.9032 29.0957 82.9081 29.3643 82.9179 29.6377C84.3339 29.4229 85.4814 28.5732 86.3603 27.0889C87.2197 25.624 87.6493 23.7881 87.6493 21.5811ZM108.611 12.5283L108.626 27.1182C108.636 27.6748 108.699 28.0947 108.816 28.3779C108.934 28.6611 109.178 28.8027 109.549 28.8027C111.287 28.8027 112.64 27.6992 113.606 25.4922C114.544 23.3438 115.013 20.3652 115.013 16.5566C115.013 14.5547 114.778 13.0361 114.309 12.001C113.675 10.6045 112.571 9.90625 110.999 9.90625C109.993 9.90625 109.373 10.0234 109.139 10.2578C108.914 10.4922 108.768 10.7852 108.699 11.1367C108.641 11.4785 108.611 11.9424 108.611 12.5283ZM104.539 31C104.851 30.2578 105.032 29.6377 105.081 29.1396C105.14 28.6416 105.188 28.1094 105.227 27.543C105.306 26.3906 105.345 24.8428 105.345 22.8994C105.345 20.5459 105.306 18.3975 105.227 16.4541L105.066 12.4258C105.027 11.4102 104.939 10.7021 104.803 10.3018C104.588 9.66699 104.236 9.0957 103.748 8.58789H111.79C115.13 8.58789 117.312 9.90137 118.338 12.5283C118.699 13.4561 118.88 14.5791 118.88 15.8975C118.88 23.2705 116.38 27.9678 111.38 29.9893C109.69 30.6729 107.703 31.0146 105.418 31.0146C105.271 31.0146 105.125 31.0146 104.978 31.0146C104.832 31.0146 104.685 31.0098 104.539 31ZM132.181 26.0195C132.532 26.2539 132.708 26.6641 132.708 27.25C132.708 27.8262 132.63 28.334 132.474 28.7734C132.317 29.2129 132.044 29.623 131.653 30.0039C130.774 30.8633 129.436 31.293 127.64 31.293C125.55 31.293 123.958 30.5215 122.864 28.9785C121.897 27.6016 121.414 25.7412 121.414 23.3975C121.414 21.0342 122.068 19.1787 123.377 17.8311C124.617 16.5518 126.297 15.9121 128.416 15.9121C129.891 15.9121 131.043 16.3418 131.873 17.2012C132.527 17.8848 132.854 18.6758 132.854 19.5742C132.854 20.4629 132.679 21.2686 132.327 21.9912C131.985 22.7041 131.477 23.3193 130.804 23.8369C129.417 24.9111 127.478 25.4775 124.988 25.5361C125.193 27.499 125.809 28.8125 126.834 29.4766C127.205 29.7109 127.698 29.8281 128.313 29.8281C128.929 29.8281 129.583 29.5059 130.276 28.8613C130.97 28.2168 131.604 27.2695 132.181 26.0195ZM124.9 24.1445C127.986 23.9395 129.529 22.4453 129.529 19.6621C129.529 18.6172 129.217 17.9141 128.592 17.5527C128.377 17.4355 128.094 17.377 127.742 17.377C127.391 17.377 127.034 17.4844 126.673 17.6992C126.321 17.9141 126.014 18.2656 125.75 18.7539C125.184 19.8184 124.9 21.4639 124.9 23.6904V24.1445ZM136.311 31C136.77 29.4277 137 26.2539 137 21.4785C137 20.6387 136.99 20.0967 136.971 19.8525C136.951 19.5986 136.863 19.457 136.707 19.4277C136.062 19.2812 135.677 18.9102 135.55 18.3145C135.52 18.1582 135.481 17.9922 135.433 17.8164H136.37C136.643 17.8164 136.809 17.7578 136.868 17.6406C136.936 17.5137 136.971 17.167 136.971 16.6006C136.971 15.4971 136.927 14.4131 136.839 13.3486C136.761 12.2842 136.805 11.4785 136.971 10.9316C137.137 10.3848 137.395 9.91602 137.747 9.52539C138.489 8.70508 139.539 8.29492 140.896 8.29492C141.404 8.29492 141.868 8.34375 142.288 8.44141C142.708 8.53906 143.113 8.58789 143.504 8.58789C143.894 8.58789 144.236 8.53418 144.529 8.42676C144.822 8.31934 145.081 8.08008 145.306 7.70898C145.433 7.85547 145.55 8.11914 145.657 8.5C145.765 8.87109 145.818 9.28125 145.818 9.73047C145.818 10.1699 145.784 10.6387 145.716 11.1367C145.657 11.625 145.569 12.1035 145.452 12.5723C145.208 13.5488 144.866 14.3252 144.427 14.9014C144.192 12.9092 143.973 11.6689 143.768 11.1807C143.572 10.6924 143.352 10.3604 143.108 10.1846C142.874 9.99902 142.522 9.90625 142.054 9.90625C141.585 9.90625 141.165 10.1553 140.794 10.6533C140.433 11.1416 140.252 11.8154 140.252 12.6748V13.1436C140.252 15.0967 140.306 16.2783 140.413 16.6885C140.52 17.0889 140.667 17.3525 140.852 17.4795C141.038 17.6064 141.302 17.6699 141.643 17.6699H144.339C144.095 18.5488 143.792 19.1152 143.431 19.3691C143.255 19.5059 143.055 19.5742 142.83 19.5742C142.615 19.5742 142.444 19.5596 142.317 19.5303C142.19 19.501 142.068 19.4668 141.951 19.4277C141.658 19.3301 141.39 19.2812 141.145 19.2812C140.911 19.2812 140.73 19.3154 140.603 19.3838C140.476 19.4424 140.374 19.5303 140.296 19.6475C140.179 19.8428 140.12 20.1553 140.12 20.585V23.0898C140.12 26.127 140.227 28.0264 140.442 28.7881C140.599 29.3545 140.799 29.8037 141.043 30.1357L141.658 31H136.311ZM156.995 26.0195C157.347 26.2539 157.522 26.6641 157.522 27.25C157.522 27.8262 157.444 28.334 157.288 28.7734C157.132 29.2129 156.858 29.623 156.468 30.0039C155.589 30.8633 154.251 31.293 152.454 31.293C150.364 31.293 148.772 30.5215 147.679 28.9785C146.712 27.6016 146.228 25.7412 146.228 23.3975C146.228 21.0342 146.883 19.1787 148.191 17.8311C149.432 16.5518 151.111 15.9121 153.23 15.9121C154.705 15.9121 155.857 16.3418 156.687 17.2012C157.342 17.8848 157.669 18.6758 157.669 19.5742C157.669 20.4629 157.493 21.2686 157.142 21.9912C156.8 22.7041 156.292 23.3193 155.618 23.8369C154.231 24.9111 152.293 25.4775 149.803 25.5361C150.008 27.499 150.623 28.8125 151.648 29.4766C152.019 29.7109 152.513 29.8281 153.128 29.8281C153.743 29.8281 154.397 29.5059 155.091 28.8613C155.784 28.2168 156.419 27.2695 156.995 26.0195ZM149.715 24.1445C152.801 23.9395 154.344 22.4453 154.344 19.6621C154.344 18.6172 154.031 17.9141 153.406 17.5527C153.191 17.4355 152.908 17.377 152.557 17.377C152.205 17.377 151.849 17.4844 151.487 17.6992C151.136 17.9141 150.828 18.2656 150.564 18.7539C149.998 19.8184 149.715 21.4639 149.715 23.6904V24.1445ZM160.892 31C161.341 29.457 161.565 26.8057 161.565 23.0459C161.565 20.3701 161.331 18.5439 160.862 17.5674C160.745 17.3232 160.613 17.0938 160.467 16.8789L159.983 16.2051H165.066C164.92 16.6934 164.822 17.1523 164.773 17.582L164.656 18.6367C165.838 16.8203 167.342 15.9121 169.168 15.9121C170.35 15.9121 171.272 16.3711 171.936 17.2891C172.581 18.1875 172.903 19.4033 172.903 20.9365V22.5039C172.903 25.1895 172.928 26.8301 172.976 27.4258C173.025 28.0215 173.064 28.4756 173.094 28.7881C173.123 29.1006 173.157 29.3789 173.196 29.623C173.265 30.082 173.367 30.541 173.504 31H169.212C169.661 29.457 169.886 26.8057 169.886 23.0459C169.886 21.542 169.788 20.5117 169.593 19.9551C169.407 19.3984 169.183 19.0029 168.919 18.7686C168.655 18.5244 168.309 18.4023 167.879 18.4023C167.088 18.4023 166.37 18.7148 165.726 19.3398C165.169 19.877 164.744 20.5605 164.451 21.3906C164.432 21.6543 164.422 21.9277 164.422 22.2109V23.0459C164.422 26.8057 164.646 29.457 165.096 31H160.892ZM185.662 29.8428C184.598 30.8096 183.245 31.293 181.604 31.293C180.101 31.293 178.914 30.8584 178.045 29.9893C177.146 29.0908 176.697 27.8262 176.697 26.1953C176.697 24.5547 176.936 23.124 177.415 21.9033C177.893 20.6729 178.523 19.6426 179.305 18.8125C180.848 17.1719 182.742 16.3076 184.988 16.2197C184.91 13.2119 184.808 11.4883 184.681 11.0488C184.563 10.5996 184.441 10.248 184.314 9.99414C184.197 9.73047 184.06 9.49121 183.904 9.27637L183.406 8.58789H188.753C188.479 9.57422 188.318 10.5313 188.269 11.459C188.23 12.3867 188.201 13.2021 188.182 13.9053C188.162 14.6084 188.147 15.3457 188.138 16.1172C188.108 17.4062 188.094 18.6904 188.094 19.9697C188.094 21.2393 188.094 22.2012 188.094 22.8555C188.103 23.5098 188.118 24.1299 188.138 24.7158C188.186 26.9131 188.269 28.2217 188.387 28.6416C188.504 29.0518 188.621 29.3838 188.738 29.6377C188.865 29.8818 189.007 30.1113 189.163 30.3262L189.661 31H185.867L185.662 29.8428ZM185.003 25.624C185.052 24.1201 185.076 22.7139 185.076 21.4053C185.076 20.0869 185.061 18.832 185.032 17.6406C183.616 17.8555 182.483 18.6904 181.634 20.1455C180.784 21.5908 180.359 23.4121 180.359 25.6094C180.359 26.9082 180.457 27.8164 180.652 28.334C180.857 28.8516 181.097 29.2324 181.37 29.4766C181.653 29.7109 181.99 29.8281 182.381 29.8281C182.781 29.8281 183.128 29.75 183.421 29.5938C183.724 29.4277 183.987 29.1885 184.212 28.876C184.7 28.2119 184.964 27.1279 185.003 25.624ZM202.347 26.0195C202.698 26.2539 202.874 26.6641 202.874 27.25C202.874 27.8262 202.796 28.334 202.64 28.7734C202.483 29.2129 202.21 29.623 201.819 30.0039C200.94 30.8633 199.602 31.293 197.806 31.293C195.716 31.293 194.124 30.5215 193.03 28.9785C192.063 27.6016 191.58 25.7412 191.58 23.3975C191.58 21.0342 192.234 19.1787 193.543 17.8311C194.783 16.5518 196.463 15.9121 198.582 15.9121C200.057 15.9121 201.209 16.3418 202.039 17.2012C202.693 17.8848 203.02 18.6758 203.02 19.5742C203.02 20.4629 202.845 21.2686 202.493 21.9912C202.151 22.7041 201.643 23.3193 200.97 23.8369C199.583 24.9111 197.644 25.4775 195.154 25.5361C195.359 27.499 195.975 28.8125 197 29.4766C197.371 29.7109 197.864 29.8281 198.479 29.8281C199.095 29.8281 199.749 29.5059 200.442 28.8613C201.136 28.2168 201.77 27.2695 202.347 26.0195ZM195.066 24.1445C198.152 23.9395 199.695 22.4453 199.695 19.6621C199.695 18.6172 199.383 17.9141 198.758 17.5527C198.543 17.4355 198.26 17.377 197.908 17.377C197.557 17.377 197.2 17.4844 196.839 17.6992C196.487 17.9141 196.18 18.2656 195.916 18.7539C195.35 19.8184 195.066 21.4639 195.066 23.6904V24.1445ZM206.448 31C206.897 29.457 207.122 26.8057 207.122 23.0459C207.122 20.3701 206.907 18.5439 206.477 17.5674C206.302 17.167 205.989 16.7129 205.54 16.2051H210.74C210.564 16.8203 210.423 17.665 210.315 18.7393C211.233 17.5869 212.513 16.7715 214.153 16.293C214.856 16.0879 215.369 15.7656 215.691 15.3262C216.014 16.0977 216.175 16.7617 216.175 17.3184C216.175 17.875 216.145 18.3926 216.087 18.8711C216.028 19.3398 215.94 19.7988 215.823 20.248C215.569 21.2148 215.232 21.9668 214.812 22.5039C214.451 20.5996 213.89 19.4863 213.128 19.1641C212.249 18.7832 211.39 19.3008 210.55 20.7168C210.374 21.0098 210.227 21.3223 210.11 21.6543C210.101 21.8789 210.096 22.1084 210.096 22.3428C210.096 22.5771 210.096 22.8115 210.096 23.0459C210.096 26.8057 210.32 29.457 210.769 31H206.448Z" fill="#0052CC"/>
</svg>
