<svg width="54" height="54" viewBox="0 0 54 54" fill="none" xmlns="http://www.w3.org/2000/svg">
<g clip-path="url(#clip0_1_1219)">
<path fill-rule="evenodd" clip-rule="evenodd" d="M10.4375 4.91667V49.0833C10.4375 50.2549 10.9013 51.3783 11.7294 52.2065C12.5575 53.0346 13.6837 53.5 14.8542 53.5H39.1458C40.3162 53.5 41.4424 53.0346 42.2706 52.2065C43.0987 51.3783 43.5625 50.2549 43.5625 49.0833V4.91667C43.5625 3.74515 43.0987 2.62165 42.2706 1.79352C41.4424 0.965399 40.3162 0.5 39.1458 0.5C33.2054 0.5 20.7946 0.5 14.8542 0.5C13.6837 0.5 12.5575 0.965399 11.7294 1.79352C10.9013 2.62165 10.4375 3.74515 10.4375 4.91667ZM41.3542 48.4926C40.7027 48.868 39.9519 49.0833 39.1458 49.0833H14.8542C14.0481 49.0833 13.2973 48.868 12.6458 48.4926V49.0833C12.6458 49.6691 12.8777 50.2306 13.2917 50.6446C13.7058 51.0592 14.269 51.2917 14.8542 51.2917H39.1458C39.731 51.2917 40.2942 51.0592 40.7083 50.6446C41.1223 50.2306 41.3542 49.6691 41.3542 49.0833V48.4926ZM41.3542 44.6667V8.78125C41.3542 8.19549 41.1223 7.63402 40.7083 7.21996C40.2942 6.80534 39.731 6.57292 39.1458 6.57292H32.1012L31.3008 8.17065C31.113 8.54496 30.7321 8.78125 30.3125 8.78125H23.6875C23.2679 8.78125 22.887 8.54496 22.6992 8.17065L21.8988 6.57292H14.8542C14.269 6.57292 13.7058 6.80534 13.2917 7.21996C12.8777 7.63402 12.6458 8.19549 12.6458 8.78125V44.6667C12.6458 45.8862 13.6341 46.875 14.8542 46.875H39.1458C40.3659 46.875 41.3542 45.8862 41.3542 44.6667ZM30.3125 18.1667H28.1042V15.9583C28.1042 15.3488 27.6073 14.8542 27 14.8542C26.3927 14.8542 25.8958 15.3488 25.8958 15.9583V18.1667H23.6875V15.9583C23.6875 15.3488 23.1906 14.8542 22.5833 14.8542C21.976 14.8542 21.4792 15.3488 21.4792 15.9583V18.2014C20.513 18.3235 19.6077 18.7635 18.9065 19.4602C18.2109 20.1575 17.7692 21.0634 17.6477 22.0312H15.4062C14.799 22.0312 14.3021 22.5259 14.3021 23.1354C14.3021 23.7449 14.799 24.2396 15.4062 24.2396H17.6146V26.4479H15.4062C14.799 26.4479 14.3021 26.9426 14.3021 27.5521C14.3021 28.1616 14.799 28.6562 15.4062 28.6562H17.6146V30.8646H15.4062C14.799 30.8646 14.3021 31.3592 14.3021 31.9687C14.3021 32.5782 14.799 33.0729 15.4062 33.0729H17.6477C17.7692 34.0407 18.2109 34.9467 18.9065 35.644C19.6077 36.3407 20.513 36.7807 21.4792 36.9027V39.1458C21.4792 39.7553 21.976 40.25 22.5833 40.25C23.1906 40.25 23.6875 39.7553 23.6875 39.1458V36.9375H25.8958V39.1458C25.8958 39.7553 26.3927 40.25 27 40.25C27.6073 40.25 28.1042 39.7553 28.1042 39.1458V36.9375H30.3125V39.1458C30.3125 39.7553 30.8094 40.25 31.4167 40.25C32.024 40.25 32.5208 39.7553 32.5208 39.1458V36.9027C33.487 36.7807 34.3923 36.3407 35.0935 35.644C35.7891 34.9467 36.2308 34.0407 36.3523 33.0729H38.5937C39.201 33.0729 39.6979 32.5782 39.6979 31.9687C39.6979 31.3592 39.201 30.8646 38.5937 30.8646H36.3854V28.6562H38.5937C39.201 28.6562 39.6979 28.1616 39.6979 27.5521C39.6979 26.9426 39.201 26.4479 38.5937 26.4479H36.3854V24.2396H38.5937C39.201 24.2396 39.6979 23.7449 39.6979 23.1354C39.6979 22.5259 39.201 22.0312 38.5937 22.0312H36.3523C36.2308 21.0634 35.7891 20.1575 35.0935 19.4602C34.3923 18.7635 33.487 18.3235 32.5208 18.2014V15.9583C32.5208 15.3488 32.024 14.8542 31.4167 14.8542C30.8094 14.8542 30.3125 15.3488 30.3125 15.9583V18.1667ZM34.1771 22.5833V32.5208C34.1771 33.1066 33.9453 33.6681 33.5312 34.0821C33.1171 34.4967 32.554 34.7292 31.9688 34.7292H22.0312C21.446 34.7292 20.8829 34.4967 20.4688 34.0821C20.0547 33.6681 19.8229 33.1066 19.8229 32.5208V22.5833C19.8229 21.9976 20.0547 21.4361 20.4688 21.022C20.8829 20.6074 21.446 20.375 22.0312 20.375H31.9688C32.554 20.375 33.1171 20.6074 33.5312 21.022C33.9453 21.4361 34.1771 21.9976 34.1771 22.5833ZM30.3125 29.2083V30.8646H28.6562C28.049 30.8646 27.5521 31.3592 27.5521 31.9687C27.5521 32.5782 28.049 33.0729 28.6562 33.0729H31.4167C32.0295 33.0729 32.5208 32.5788 32.5208 31.9687V29.2083C32.5208 28.5988 32.024 28.1042 31.4167 28.1042C30.8094 28.1042 30.3125 28.5988 30.3125 29.2083ZM23.6875 25.8958V24.2396H25.3437C25.951 24.2396 26.4479 23.7449 26.4479 23.1354C26.4479 22.5259 25.951 22.0312 25.3437 22.0312H22.5833C21.9705 22.0312 21.4792 22.5254 21.4792 23.1354V25.8958C21.4792 26.5053 21.976 27 22.5833 27C23.1906 27 23.6875 26.5053 23.6875 25.8958ZM41.3542 4.95641V4.91667C41.3542 4.33091 41.1223 3.76944 40.7083 3.35537C40.2942 2.94076 39.731 2.70833 39.1458 2.70833H14.8542C14.269 2.70833 13.7058 2.94076 13.2917 3.35537C12.8777 3.76944 12.6458 4.33091 12.6458 4.91667V4.95641C13.3139 4.57216 14.0702 4.36458 14.8542 4.36458H22.5833C23.0029 4.36458 23.3839 4.60087 23.5716 4.97518L24.3721 6.57292H29.6279L30.4284 4.97518C30.6161 4.60087 30.9971 4.36458 31.4167 4.36458H39.1458C39.9298 4.36458 40.6861 4.57216 41.3542 4.95641Z" fill="black"/>
</g>
<defs>
<clipPath id="clip0_1_1219">
<rect width="53" height="53" fill="white" transform="translate(0.5 0.5)"/>
</clipPath>
</defs>
</svg>
