<svg width="400" height="294" viewBox="0 0 400 294" fill="none" xmlns="http://www.w3.org/2000/svg">
<path d="M0 293.793H400V0.00012207H0V293.793Z" fill="#EE3338"/>
<path d="M228.001 262.108H218.56V217.612H228.001V262.108Z" fill="white"/>
<path d="M88.2946 215.228V223.936H80.8093V262.108H71.3586V223.936H63.9453V215.228H88.2946Z" fill="white"/>
<mask id="mask0_200_83" style="mask-type:luminance" maskUnits="userSpaceOnUse" x="0" y="0" width="400" height="294">
<path d="M0 0.00012207H400V293.793H0V0.00012207Z" fill="white"/>
</mask>
<g mask="url(#mask0_200_83)">
<path d="M121.079 215.228V245.57C121.079 248.559 121.29 250.8 121.712 252.287C122.176 253.738 123.528 254.466 125.77 254.466C127.376 254.466 128.563 254.031 129.318 253.158C130.083 252.287 130.463 250.42 130.463 247.558V215.228H139.908V249.428C139.908 253.199 139.047 256.396 137.319 258.998C135.584 261.571 131.711 262.856 125.711 262.856C121.184 262.856 117.696 261.792 115.244 259.687C112.836 257.576 111.632 254.355 111.632 250.048V215.228H121.079Z" fill="white"/>
<path fill-rule="evenodd" clip-rule="evenodd" d="M175.113 235.375L176.756 235.43C178.829 235.43 180.354 234.841 181.333 233.638C182.297 232.431 182.788 230.793 182.788 228.719C182.788 226.898 182.28 225.473 181.272 224.434C180.293 223.394 178.666 222.882 176.38 222.882H175.113V235.375ZM165.665 262.107V215.229H175.176C179.826 215.229 183.781 216.058 187.037 217.718C190.336 219.374 191.981 223.027 191.981 228.658C191.981 231.357 191.433 233.745 190.336 235.811C189.23 237.878 187.518 239.541 185.188 240.789L193.505 262.107H183.545L175.237 240.477L175.113 262.107H165.665Z" fill="white"/>
<path d="M281.916 215.228L265.549 253.402H280.573V262.108H251.788L267.705 223.936H253.809V215.228H281.916Z" fill="white"/>
<path d="M320.21 215.228L324.847 242.9L328.779 215.228H341.455L346.473 262.108H336.771L334.485 228.351L332.843 239.912L328.779 262.108H321.486L316.857 239.662L315.273 229.223V228.351L313.742 262.108H303.601L307.791 215.228H320.21Z" fill="white"/>
<path fill-rule="evenodd" clip-rule="evenodd" d="M223.468 59.2916V102.392L227.472 102.73C237.271 103.18 242.18 95.4342 242.18 79.5022C242.18 66.0249 236.953 59.2916 226.499 59.2916H223.468ZM223.468 194.817H200.387V32.8649H223.593C234.764 32.8649 243.433 35.0449 249.587 39.4302C259.627 46.7222 264.644 60.0276 264.644 79.3262C264.644 98.7462 259.136 112.662 248.129 121.078L268.411 194.817H243.989L223.703 120.066H223.468V194.817Z" fill="white"/>
<path fill-rule="evenodd" clip-rule="evenodd" d="M324.175 125.819L315.87 74.3949L308.278 125.819H324.175ZM301.368 32.7949H331.351L355.87 194.819H331.778L326.52 145.284H305.846L300.558 194.819H278.128L301.368 32.7949Z" fill="white"/>
<path d="M44.9097 32.8647H103.21L103.216 51.9247H84.9937V194.819H63.131V51.9247H44.9097V32.8647Z" fill="white"/>
<path d="M115.362 32.873H138.079V151.95C138.079 159.58 138.432 162.096 139.155 164.814C140.586 170.421 144.032 173.122 149.374 173.122C154.311 173.122 157.519 168.592 159.112 164.814C160.064 162.269 160.548 158.088 160.548 151.95V32.873H183.383V159.586C183.383 169.75 181.784 177.468 178.598 182.72C173.34 191.401 163.714 195.773 149.374 195.773C126.81 195.773 115.362 184.212 115.362 161.168V32.873Z" fill="white"/>
<path d="M228.007 212.854H218.559V205.702H228.007V212.854Z" fill="white"/>
</g>
</svg>
