<svg width="21" height="26" viewBox="0 0 21 26" fill="none" xmlns="http://www.w3.org/2000/svg">
<path fill-rule="evenodd" clip-rule="evenodd" d="M9.681 0.148457C10.2091 -0.0494858 10.7909 -0.0494858 11.319 0.148457L19.4857 3.21096C19.9305 3.37771 20.3139 3.67629 20.5845 4.06677C20.8551 4.45725 21.0001 4.92104 21 5.39612V11.653C21 13.603 20.4571 15.5144 19.4319 17.1732C18.4068 18.832 16.94 20.1725 15.1958 21.0446L11.2828 23C11.0398 23.1215 10.7718 23.1848 10.5 23.1848C10.2282 23.1848 9.96022 23.1215 9.71717 23L5.80417 21.0435C4.06005 20.1714 2.59323 18.8308 1.56808 17.1721C0.542933 15.5133 -4.15999e-05 13.6018 4.55189e-07 11.6518V5.39729C-0.000296345 4.92201 0.144556 4.45797 0.41518 4.06725C0.685803 3.67654 1.06929 3.37778 1.51433 3.21096L9.681 0.148457ZM11.6667 11.275C12.1115 11.0181 12.4591 10.6217 12.6556 10.1472C12.8522 9.67262 12.8867 9.1465 12.7537 8.65037C12.6208 8.15425 12.3279 7.71585 11.9204 7.40316C11.5129 7.09048 11.0136 6.92098 10.5 6.92096C9.98637 6.92098 9.4871 7.09048 9.07962 7.40316C8.67214 7.71585 8.37922 8.15425 8.24628 8.65037C8.11334 9.1465 8.14782 9.67262 8.34436 10.1472C8.5409 10.6217 8.88853 11.0181 9.33333 11.275V15.0876C9.33333 15.397 9.45625 15.6938 9.67504 15.9126C9.89383 16.1314 10.1906 16.2543 10.5 16.2543C10.8094 16.2543 11.1062 16.1314 11.325 15.9126C11.5437 15.6938 11.6667 15.397 11.6667 15.0876V11.275Z" fill="#0052CC"/>
</svg>
