<svg width="64" height="64" viewBox="0 0 64 64" fill="none" xmlns="http://www.w3.org/2000/svg">
<path d="M35.3 58.2C35.22 58.2 35.13 58.2 35.04 58.19C33.69 58.05 32.63 56.84 32.63 55.43V47.82C32.63 47.47 32.35 47.19 32 47.19C31.64 47.19 31.37 47.47 31.37 47.82V55.43C31.37 56.84 30.31 58.06 28.96 58.19C28.2 58.26 27.45 58.01 26.89 57.5C26.33 57 26.02 56.28 26.02 55.53V38.68L19.06 31.33C18.54 30.77 18.28 30.02 18.35 29.27C18.42 28.51 18.81 27.82 19.42 27.37C20.49 26.59 22.02 26.74 22.91 27.67L28.47 33.3C28.64 33.47 28.87 33.57 29.1 33.57H34.92C35.15 33.57 35.38 33.47 35.55 33.3L41.11 27.66C41.98 26.75 43.53 26.59 44.59 27.36C45.21 27.81 45.6 28.51 45.67 29.26C45.74 30.02 45.48 30.77 44.96 31.32L38 38.67V55.51C38 56.26 37.68 56.98 37.13 57.48C36.62 57.95 35.97 58.2 35.3 58.2ZM32 45.58C33.24 45.58 34.24 46.58 34.24 47.81V55.42C34.24 56.01 34.67 56.53 35.2 56.58C35.51 56.61 35.8 56.51 36.03 56.31C36.25 56.11 36.38 55.83 36.38 55.53V38.36C36.38 38.15 36.46 37.96 36.6 37.81L43.78 30.23C43.99 30.01 44.09 29.72 44.06 29.42C44.03 29.12 43.88 28.85 43.64 28.67C43.23 28.37 42.61 28.43 42.26 28.79L36.69 34.44C36.21 34.92 35.58 35.19 34.92 35.19H29.1C28.44 35.19 27.81 34.93 27.33 34.45L21.76 28.81C21.4 28.43 20.79 28.38 20.37 28.68C20.13 28.86 19.98 29.12 19.95 29.43C19.92 29.73 20.02 30.02 20.23 30.24L27.41 37.82C27.55 37.97 27.63 38.17 27.63 38.37V55.53C27.63 55.83 27.75 56.11 27.98 56.31C28.21 56.52 28.51 56.61 28.81 56.58C29.34 56.53 29.77 56.01 29.77 55.42V47.81C29.76 46.58 30.76 45.58 32 45.58Z" fill="black"/>
<path d="M32 31.8698C29.58 31.8698 27.61 29.8998 27.61 27.4798C27.61 25.0598 29.58 23.0898 32 23.0898C34.42 23.0898 36.39 25.0598 36.39 27.4798C36.39 29.8998 34.42 31.8698 32 31.8698ZM32 24.7098C30.47 24.7098 29.22 25.9598 29.22 27.4898C29.22 29.0198 30.47 30.2698 32 30.2698C33.53 30.2698 34.78 29.0198 34.78 27.4898C34.78 25.9598 33.53 24.7098 32 24.7098Z" fill="black"/>
<path d="M50.6 58.53H42.5C42.1 58.53 41.76 58.23 41.7 57.83L41.23 54.32C40.86 51.58 41.62 48.82 43.32 46.73C43.38 46.64 43.43 46.59 43.47 46.55C45.12 44.57 46.44 42.47 47.32 40.35L48.67 37.18C49.06 36.26 49.95 35.65 50.95 35.61C50.96 34.99 50.99 34.17 51.01 33.29C51.05 31.9 51.08 30.33 51.11 29.07C51.16 27.26 52.29 25.7 53.99 25.09C54.08 25.06 54.17 25.04 54.26 25.04H54.35C55.28 25.04 56.05 25.73 56.15 26.65L57.87 41.12C58.02 42.66 57.52 45.53 56.68 46.83C54.97 49.14 52.33 52.93 51.94 54.09C51.54 55.31 51.4 56.81 51.41 57.72C51.41 57.93 51.33 58.14 51.18 58.29C51.02 58.44 50.81 58.53 50.6 58.53ZM43.21 56.92H49.82C49.88 55.91 50.05 54.67 50.41 53.58C51.01 51.8 54.91 46.51 55.36 45.91C55.95 45.01 56.39 42.49 56.28 41.29L54.57 26.83C54.56 26.74 54.5 26.66 54.41 26.65C53.41 27.07 52.76 28.02 52.73 29.11C52.7 30.37 52.66 31.94 52.63 33.33C52.6 34.45 52.58 35.46 52.56 36.1C53.48 36.76 53.87 37.97 53.47 39.07L51.12 45.5C50.97 45.92 50.5 46.13 50.09 45.98C49.67 45.83 49.46 45.37 49.61 44.95L51.96 38.52C52.14 38.04 51.91 37.52 51.44 37.31C51.41 37.3 51.38 37.28 51.35 37.27C50.92 37.13 50.35 37.36 50.16 37.81L48.81 40.98C47.86 43.24 46.46 45.48 44.67 47.63C44.66 47.64 44.66 47.65 44.65 47.65C44.64 47.67 44.62 47.69 44.61 47.71C43.17 49.46 42.52 51.79 42.84 54.1L43.21 56.92Z" fill="black"/>
<path d="M21.5 58.53H13.41C13.2 58.53 12.99 58.44 12.84 58.29C12.69 58.14 12.61 57.93 12.61 57.72C12.62 56.81 12.48 55.31 12.08 54.09C11.69 52.93 9.05 49.14 7.37 46.87C6.5 45.53 6 42.66 6.14 41.14L7.86 26.65C7.96 25.74 8.74 25.04 9.66 25.04H9.75C9.84 25.04 9.94 25.06 10.02 25.09C11.72 25.71 12.85 27.27 12.9 29.07C12.93 30.3 12.97 31.82 13 33.18C13.02 34.11 13.04 34.97 13.06 35.62C14.06 35.66 14.94 36.26 15.34 37.19L16.69 40.36C17.58 42.48 18.89 44.58 20.59 46.61C20.59 46.61 20.64 46.66 20.7 46.75C22.4 48.84 23.16 51.6 22.78 54.33L22.31 57.84C22.24 58.23 21.9 58.53 21.5 58.53ZM14.19 56.92H20.8L21.18 54.1C21.5 51.78 20.85 49.45 19.41 47.71C19.4 47.69 19.38 47.67 19.37 47.65C19.36 47.64 19.36 47.63 19.35 47.63C17.55 45.48 16.16 43.24 15.2 40.98L13.85 37.81C13.66 37.36 13.09 37.12 12.66 37.27C12.64 37.28 12.61 37.3 12.58 37.31C12.11 37.51 11.88 38.05 12.05 38.52L14.41 44.96C14.56 45.38 14.35 45.84 13.93 45.99C13.51 46.14 13.05 45.93 12.9 45.51L10.55 39.08C10.14 37.98 10.54 36.78 11.46 36.11C11.45 35.44 11.42 34.39 11.39 33.22C11.36 31.85 11.32 30.34 11.29 29.11C11.26 28.03 10.61 27.08 9.61 26.66C9.53 26.68 9.46 26.75 9.45 26.84L7.73 41.31C7.62 42.49 8.06 45.01 8.68 45.95C9.1 46.51 13 51.8 13.6 53.58C13.96 54.67 14.13 55.91 14.19 56.92Z" fill="black"/>
<path d="M37.02 21.54C36.9 21.54 36.77 21.51 36.66 21.45C36.39 21.31 36.22 21.04 36.22 20.73C36.22 14.27 33.71 7.06996 32.01 7.06996C30.31 7.06996 27.8 14.27 27.8 20.73C27.8 21.03 27.63 21.31 27.36 21.45C27.09 21.59 26.76 21.56 26.52 21.38C23.68 19.28 20.9 19.28 18.03 21.38C17.79 21.56 17.46 21.58 17.19 21.45C16.92 21.31 16.75 21.04 16.75 20.73C16.75 12.31 23.6 5.45996 32.02 5.45996C40.44 5.45996 47.29 12.31 47.29 20.73C47.29 21.03 47.12 21.31 46.85 21.45C46.58 21.59 46.26 21.56 46.01 21.38C43.13 19.28 40.35 19.28 37.51 21.38C37.35 21.49 37.19 21.54 37.02 21.54ZM34.64 7.32996C36.47 10.12 37.55 15.46 37.78 19.29C40.36 17.84 42.98 17.82 45.58 19.23C44.92 13.28 40.43 8.46996 34.64 7.32996ZM22.28 18.19C23.6 18.19 24.92 18.56 26.23 19.29C26.46 15.46 27.53 10.12 29.37 7.32996C23.58 8.46996 19.09 13.28 18.43 19.22C19.71 18.53 20.99 18.19 22.28 18.19Z" fill="black"/>
<path d="M37.02 21.54C36.89 21.54 36.76 21.51 36.63 21.44C33.18 19.54 30.17 19.53 27.44 21.4C27.07 21.65 26.57 21.56 26.32 21.19C26.07 20.82 26.16 20.32 26.53 20.07C29.76 17.86 33.42 17.84 37.41 20.03C37.8 20.24 37.94 20.73 37.73 21.12C37.58 21.39 37.3 21.54 37.02 21.54Z" fill="black"/>
</svg>
