<svg width="56" height="57" viewBox="0 0 56 57" fill="none" xmlns="http://www.w3.org/2000/svg">
<path d="M17.2948 21.1707H23.8338L23.0166 20.3546C22.7173 20.0559 22.717 19.5709 23.0158 19.2717C23.3146 18.9725 23.7995 18.972 24.0987 19.2709L26.2255 21.3947C26.3692 21.5382 26.4502 21.7331 26.4503 21.9362C26.4503 22.1394 26.3697 22.3343 26.2259 22.478L24.0991 24.6049C23.9496 24.7544 23.7536 24.8292 23.5576 24.8292C23.3616 24.8292 23.1656 24.7544 23.0161 24.6049C22.7171 24.3059 22.7171 23.8209 23.0161 23.5219L23.8357 22.7023H17.2947C16.8718 22.7023 16.5289 22.3595 16.5289 21.9365C16.5289 21.5135 16.8719 21.1707 17.2948 21.1707ZM22.1997 40.939H26.534C26.957 40.939 27.2999 40.5961 27.2999 40.1731C27.2999 39.7502 26.957 39.4073 26.534 39.4073H22.1997C21.7768 39.4073 21.4339 39.7502 21.4339 40.1731C21.4339 40.5961 21.7768 40.939 22.1997 40.939ZM32.1055 28.1621V15.714C32.1055 14.2813 30.9413 13.1158 29.5104 13.1158H21.8555C20.4246 13.1158 19.2604 14.2813 19.2604 15.714V18.5447C19.2604 18.9676 19.6033 19.3105 20.0262 19.3105C20.4492 19.3105 20.7921 18.9676 20.7921 18.5447V15.714C20.7921 15.1259 21.2691 14.6475 21.8555 14.6475H29.5104C30.0967 14.6475 30.5738 15.1259 30.5738 15.714V28.1621C30.5738 28.7502 30.0968 29.2286 29.5104 29.2286H21.8555C21.2692 29.2286 20.7921 28.7502 20.7921 28.1621V25.3315C20.7921 24.9085 20.4492 24.5657 20.0262 24.5657C19.6033 24.5657 19.2604 24.9085 19.2604 25.3315V28.1621C19.2604 29.5948 20.4246 30.7603 21.8555 30.7603H29.5104C30.9413 30.7603 32.1055 29.5948 32.1055 28.1621ZM25.576 34.707C25.576 34.2841 25.2331 33.9412 24.8102 33.9412H15.1556C14.7326 33.9412 14.3897 34.2841 14.3897 34.707C14.3897 35.13 14.7326 35.4729 15.1556 35.4729H24.8102C25.2331 35.4729 25.576 35.13 25.576 34.707ZM15.1556 39.4073C14.7326 39.4073 14.3897 39.7502 14.3897 40.1731C14.3897 40.5961 14.7326 40.939 15.1556 40.939H19.4899C19.9128 40.939 20.2557 40.5961 20.2557 40.1731C20.2557 39.7502 19.9128 39.4073 19.4899 39.4073H15.1556ZM13.7294 53.9853C9.94099 53.9853 6.85902 50.9033 6.85902 47.1149C6.85902 46.692 6.51613 46.3491 6.09318 46.3491C5.67022 46.3491 5.32733 46.692 5.32733 47.1149C5.32733 51.7479 9.0965 55.517 13.7294 55.517C14.1524 55.517 14.4953 55.1741 14.4953 54.7512C14.4953 54.3282 14.1524 53.9853 13.7294 53.9853ZM34.9051 53.9853C34.4821 53.9853 34.1392 54.3282 34.1392 54.7512C34.1392 55.1741 34.4821 55.517 34.9051 55.517C36.7267 55.517 38.4631 54.9377 39.9264 53.8418C41.3391 52.7839 42.405 51.2809 42.9279 49.6101L41.4664 49.1525C40.5757 51.9981 37.8775 53.9855 34.9051 53.9855V53.9853ZM38.8209 31.4392V9.8884C38.8209 7.72923 37.0642 5.97267 34.9051 5.97267H31.3242V8.82801C31.3242 10.0794 30.3061 11.0975 29.0547 11.0975H19.5799C18.3285 11.0975 17.3103 10.0794 17.3103 8.82801V5.97267H13.7295C11.5703 5.97267 9.81367 7.72923 9.81367 9.8884V44.4267H30.9459V45.9584H9.81367V47.1148C9.81367 49.274 11.5703 51.0306 13.7295 51.0306H34.9051C36.3218 51.0306 37.6336 50.2558 38.3287 49.0084L39.6666 49.754C38.7014 51.4861 36.8769 52.5623 34.9051 52.5623H13.7294C10.7256 52.5623 8.28188 50.1185 8.28188 47.1148V9.8884C8.28188 6.88475 10.7256 4.44098 13.7294 4.44098H34.905C37.9087 4.44098 40.3525 6.88475 40.3525 9.8884V31.4392H38.8209ZM29.7926 5.97267H18.842V8.82801C18.842 9.23489 19.173 9.56586 19.5799 9.56586H29.0547C29.4616 9.56586 29.7926 9.23489 29.7926 8.82801V5.97267ZM6.09318 10.6542C6.51613 10.6542 6.85902 10.3114 6.85902 9.8884C6.85902 6.09834 9.9411 3.01484 13.7294 3.01484C14.1524 3.01484 14.4953 2.67195 14.4953 2.249C14.4953 1.82604 14.1524 1.48315 13.7294 1.48315C9.0965 1.48315 5.32733 5.25375 5.32733 9.8884C5.32733 10.3114 5.67022 10.6542 6.09318 10.6542ZM34.9051 1.48315C34.4821 1.48315 34.1392 1.82604 34.1392 2.249C34.1392 2.67195 34.4821 3.01484 34.9051 3.01484C38.6951 3.01484 41.7786 6.09823 41.7786 9.8884C41.7786 10.3114 42.1215 10.6542 42.5445 10.6542C42.9674 10.6542 43.3103 10.3114 43.3103 9.8884C43.3103 5.25375 39.5397 1.48315 34.9051 1.48315ZM21.8369 47.7288C21.414 47.7288 21.0711 48.0717 21.0711 48.4946C21.0711 48.9176 21.414 49.2604 21.8369 49.2604H26.7975C27.2205 49.2604 27.5634 48.9176 27.5634 48.4946C27.5634 48.0717 27.2205 47.7288 26.7975 47.7288H21.8369Z" fill="black"/>
<path d="M50.3603 46.7103L41.7598 31.8099C41.7598 31.8099 41.7594 31.8091 41.7592 31.8087C41.3439 31.0919 40.6024 30.6641 39.7759 30.6641C38.9351 30.6641 38.211 31.0812 37.7887 31.8099L29.19 46.7072C28.7719 47.4241 28.7714 48.2822 29.1881 49.0012C29.6019 49.7187 30.3436 50.1471 31.1722 50.1471H48.3763C49.2049 50.1471 49.9465 49.7187 50.3596 49.0026C50.7771 48.2823 50.7767 47.424 50.3603 46.7103ZM49.0338 48.2358C48.8905 48.4842 48.6632 48.6153 48.3763 48.6153H31.1722C30.8853 48.6153 30.658 48.4842 30.514 48.2346C30.3699 47.9861 30.3696 47.7248 30.5146 47.4759L39.1145 32.5767C39.2589 32.3274 39.4877 32.1957 39.7759 32.1957C40.0619 32.1957 40.2894 32.3273 40.4339 32.5763L49.0357 47.4789C49.179 47.7247 49.1787 47.986 49.0338 48.2358ZM40.5417 38.5081V41.4722C40.5417 41.8951 40.1988 42.238 39.7759 42.238C39.3529 42.238 39.01 41.8951 39.01 41.4722V38.5081C39.01 38.0852 39.3529 37.7423 39.7759 37.7423C40.1988 37.7423 40.5417 38.0852 40.5417 38.5081ZM40.5417 45.2485V45.2547C40.5417 45.6776 40.1988 46.0205 39.7759 46.0205C39.3529 46.0205 39.01 45.6776 39.01 45.2547C39.01 44.8317 39.3529 44.4858 39.7759 44.4858C40.1988 44.4858 40.5417 44.8255 40.5417 45.2486V45.2485Z" fill="#FF1E1E"/>
</svg>
