<svg width="28" height="28" viewBox="0 0 28 28" fill="none" xmlns="http://www.w3.org/2000/svg">
<path d="M23.1234 16.3333C23.3712 16.69 23.7264 16.9582 24.1373 17.0987C24.5482 17.2392 24.9933 17.2447 25.4075 17.1145C25.8218 16.9842 26.1836 16.7249 26.4401 16.3745C26.6966 16.0241 26.8344 15.6009 26.8334 15.1667C26.8344 14.7324 26.6966 14.3092 26.4401 13.9588C26.1836 13.6084 25.8218 13.3492 25.4075 13.2189C24.9933 13.0886 24.5482 13.0942 24.1373 13.2347C23.7264 13.3752 23.3712 13.6434 23.1234 14H22.1668C22.1668 12.1683 21.5834 10.5 20.5334 9.11168L22.0968 7.54835C22.7501 7.66501 23.4151 7.47835 23.9168 7.00001C24.6984 6.19501 24.6984 4.90002 23.9168 4.08335C23.1118 3.30168 21.8168 3.30168 21.0001 4.08335C20.5218 4.58502 20.3351 5.25001 20.4518 5.90335L18.8884 7.46668C17.8151 6.66168 16.5551 6.12501 15.1668 5.92668V4.29335C15.5234 4.04561 15.7916 3.69038 15.9321 3.27948C16.0726 2.86859 16.0782 2.42354 15.9479 2.00928C15.8176 1.59502 15.5584 1.23324 15.208 0.976716C14.8576 0.720197 14.4344 0.58237 14.0001 0.583349C13.5659 0.58237 13.1426 0.720197 12.7923 0.976716C12.4419 1.23324 12.1826 1.59502 12.0523 2.00928C11.9221 2.42354 11.9276 2.86859 12.0681 3.27948C12.2086 3.69038 12.4768 4.04561 12.8334 4.29335V5.92668C11.7834 6.07835 10.8034 6.41668 9.91678 6.93002L8.62178 5.07502C8.84344 4.46835 8.78511 3.76835 8.38844 3.20835C8.23466 2.98826 8.03898 2.80066 7.8126 2.65629C7.58622 2.51193 7.33359 2.41363 7.06917 2.36703C6.80475 2.32043 6.53374 2.32645 6.27164 2.38473C6.00955 2.44301 5.76153 2.55242 5.54178 2.70668C4.62011 3.34835 4.38678 4.62002 5.04011 5.54168C5.43678 6.11335 6.06678 6.41668 6.70844 6.41668L8.08511 8.37668C7.58344 8.87835 7.18678 9.43835 6.84844 10.0567C6.48066 9.91299 6.07926 9.87839 5.69231 9.95702C5.30537 10.0356 4.9493 10.2242 4.66678 10.5C3.88511 11.3167 3.88511 12.6 4.66678 13.4167C5.00511 13.7317 5.41344 13.9183 5.83344 14C5.83344 14.63 5.91511 15.2367 6.04344 15.82L4.51511 16.2283C4.02511 15.82 3.34844 15.645 2.67178 15.82C2.14886 15.9623 1.7039 16.3066 1.43478 16.777C1.16567 17.2474 1.09444 17.8054 1.23678 18.3283C1.37911 18.8513 1.72334 19.2962 2.19375 19.5653C2.66415 19.8345 3.22219 19.9057 3.74511 19.7633C4.41011 19.5767 4.91178 19.0867 5.12178 18.48L6.88344 18.0017C7.40844 18.9233 8.10844 19.74 8.92511 20.4167L7.64178 22.75C7.00011 22.8433 6.41678 23.205 6.07844 23.8233C5.95128 24.0593 5.87183 24.318 5.84464 24.5846C5.81745 24.8513 5.84304 25.1206 5.91996 25.3774C5.99688 25.6342 6.12361 25.8732 6.29293 26.081C6.46225 26.2888 6.67083 26.4612 6.90678 26.5883C7.14272 26.7155 7.4014 26.795 7.66804 26.8221C7.93469 26.8493 8.20408 26.8237 8.46083 26.7468C8.71758 26.6699 8.95667 26.5432 9.16445 26.3739C9.37222 26.2045 9.54461 25.996 9.67178 25.76C9.99844 25.1533 9.98678 24.4533 9.69511 23.8817L10.9434 21.5833C11.8884 21.9567 12.9151 22.1667 14.0001 22.1667H14.2101C14.0584 22.47 14.0001 22.82 14.0001 23.1933C14.0934 24.325 15.0734 25.165 16.1934 25.0833C17.3134 25.0017 18.1651 24.01 18.0834 22.89C18.0368 22.3067 17.7451 21.7933 17.3251 21.455C17.8734 21.21 18.3984 20.895 18.8884 20.5333L21.6184 23.2633C21.5018 23.9167 21.6884 24.5817 22.1668 25.0833C22.9834 25.865 24.2668 25.865 25.0834 25.0833C25.9001 24.3017 25.8651 22.9833 25.0834 22.1667C24.5818 21.6883 23.9168 21.5017 23.2634 21.6183L20.5334 18.8883C21.1051 18.13 21.5484 17.2667 21.8284 16.3333H23.1234ZM12.2501 14C11.2818 14 10.5001 13.2183 10.5001 12.25C10.5001 11.2817 11.2818 10.5 12.2501 10.5C13.2184 10.5 14.0001 11.2817 14.0001 12.25C14.0001 13.2183 13.2184 14 12.2501 14ZM16.3334 17.5C15.6918 17.5 15.1668 16.975 15.1668 16.3333C15.1668 15.6917 15.6918 15.1667 16.3334 15.1667C16.9751 15.1667 17.5001 15.6917 17.5001 16.3333C17.5001 16.975 16.9751 17.5 16.3334 17.5Z" fill="#DA0000"/>
</svg>
