<svg width="512" height="512" viewBox="0 0 512 512" fill="none" xmlns="http://www.w3.org/2000/svg">
<g clip-path="url(#clip0_200_110)">
<path d="M435.2 0H76.8C34.3845 0 0 34.3845 0 76.8V435.2C0 477.615 34.3845 512 76.8 512H435.2C477.615 512 512 477.615 512 435.2V76.8C512 34.3845 477.615 0 435.2 0Z" fill="#1DA1F2"/>
<path d="M437 152C425 158 411 162 397 164C412 155 423 141 429 124C415 132 400 138 384 141C373.118 129.854 358.914 122.539 343.521 120.151C328.128 117.762 312.376 120.431 298.628 127.756C284.88 135.08 273.879 146.666 267.275 160.774C260.67 174.882 258.82 190.751 262 206C206 203 152 177 117 132C112.238 139.607 109.028 148.081 107.556 156.934C106.084 165.786 106.38 174.843 108.425 183.581C110.47 192.32 114.224 200.567 119.472 207.847C124.72 215.127 131.357 221.297 139 226C128 226 117 224 107 219C108 252 131 281 163 288C153 291 142 291 131 289C141 318 168 338 198 339C169 363 130 374 93 368C123.919 388.632 159.999 400.192 197.151 401.369C234.303 402.547 271.043 393.296 303.207 374.664C335.37 356.032 361.673 328.764 379.134 295.949C396.595 263.135 404.516 226.086 402 189C416 179 428 167 437 152Z" fill="white"/>
</g>
<defs>
<clipPath id="clip0_200_110">
<rect width="512" height="512" fill="white"/>
</clipPath>
</defs>
</svg>
